#!OML:ASF F:\VICON\USERDATA\INSTALL\rory3\rory3.ASF
:FULLY-SPECIFIED
:DEGREES
546
root 0.755238 17.9891 -0.794357 2.77365 -26.3047 0.410244
lowerback 0.654842 0.154058 -3.64132
upperback 0.272355 0.184393 0.840877
thorax -0.101985 0.0899336 2.90418
lowerneck -13.8883 -2.75202 -12.6644
upperneck 25.4983 -2.36645 5.85233
head 10.7318 -1.66019 3.94193
rclavicle -1.2921e-014 1.39149e-015
rhumerus -17.7052 42.5584 -81.3103
rradius 121.014
rwrist 32.2851
rhand -5.52034 15.8181
rfingers 7.12502
rthumb 20.2934 -13.1417
lclavicle -1.2921e-014 1.39149e-015
lhumerus -38.0465 -28.2607 99.9365
lradius 92.5008
lwrist 9.31239
lhand -21.2344 29.343
lfingers 7.12502
lthumb 5.14802 59.2605
rfemur -9.10692 2.1041 11.9462
rtibia 21.9195
rfoot -16.4093 -12.7409
rtoes 4.27189
lfemur -4.10854 0.270294 -22.0771
ltibia 16.3485
lfoot -10.6198 3.74539
ltoes -10.7394
547
root 0.746819 17.9899 -0.805746 2.65271 -25.8471 0.4693
lowerback 0.999324 0.0302179 -3.85975
upperback 0.205845 0.00313497 0.845807
thorax -0.349381 0.00539705 3.03373
lowerneck -14.0143 -2.85783 -12.7488
upperneck 25.4711 -2.52574 6.03519
head 10.7664 -1.71711 4.00188
rclavicle -6.36794e-014 -3.32964e-015
rhumerus -18.0674 42.7474 -81.5846
rradius 121.027
rwrist 32.7756
rhand -5.48792 15.5611
rfingers 7.12502
rthumb 20.3246 -13.3954
lclavicle -6.36794e-014 -3.32964e-015
lhumerus -38.3649 -28.1648 99.9856
lradius 92.5408
lwrist 8.98624
lhand -20.9275 29.3514
lfingers 7.12502
lthumb 5.44438 59.2615
rfemur -8.88644 1.9719 11.9739
rtibia 21.9457
rfoot -16.6585 -12.9564
rtoes 4.36893
lfemur -4.06333 0.533337 -22.0278
ltibia 16.3331
lfoot -10.6208 3.04344
ltoes -11.2728
548
root 0.739772 17.9907 -0.793444 2.63073 -25.8311 0.503799
lowerback 0.885682 0.0358924 -3.91017
upperback 0.218697 0.0148777 0.808344
thorax -0.273402 0.00950061 3.02332
lowerneck -14.1877 -2.94753 -12.7341
upperneck 25.4727 -2.66076 6.14124
head 10.8162 -1.76239 4.02046
rclavicle -2.44008e-014 -2.43511e-015
rhumerus -18.3409 42.8892 -81.8152
rradius 121.02
rwrist 33.2595
rhand -5.51296 15.6451
rfingers 7.12502
rthumb 20.3005 -13.3139
lclavicle -2.44008e-014 -2.43511e-015
lhumerus -38.5859 -28.1322 99.91
lradius 92.3297
lwrist 8.81348
lhand -21.7878 27.845
lfingers 7.12502
lthumb 4.61365 57.7748
rfemur -8.83555 1.91362 11.947
rtibia 21.9721
rfoot -16.6586 -12.9663
rtoes 4.16087
lfemur -3.94382 0.62471 -22.064
ltibia 16.2021
lfoot -10.6115 2.94846
ltoes -11.4645
549
root 0.734991 17.9885 -0.760999 2.69109 -26.1994 0.46276
lowerback 0.446234 0.154729 -3.76573
upperback 0.254446 0.192428 0.767816
thorax -0.00413023 0.0922429 2.8994
lowerneck -14.0736 -3.0534 -13.0738
upperneck 25.2224 -2.87511 6.66718
head 10.7355 -1.82588 4.23799
rclavicle 3.88593e-014 -8.10048e-015
rhumerus -18.6994 43.0628 -82.0335
rradius 121.085
rwrist 33.4756
rhand -5.52425 15.854
rfingers 7.12502
rthumb 20.2896 -13.1062
lclavicle 3.88593e-014 -8.10048e-015
lhumerus -38.9297 -28.1318 99.9586
lradius 92.2543
lwrist 8.9355
lhand -23.4372 26.9006
lfingers 7.12502
lthumb 3.02086 56.8589
rfemur -8.89194 1.93365 11.9203
rtibia 21.9962
rfoot -16.4129 -12.7136
rtoes 3.98612
lfemur -3.77731 0.469411 -22.1221
ltibia 16.0852
lfoot -10.6634 3.47918
ltoes -11.1166
550
root 0.722336 17.9882 -0.706285 2.98051 -27.3134 0.492199
lowerback -0.606818 0.477636 -3.68866
upperback 0.270955 0.664655 0.694939
thorax 0.56819 0.317054 2.78881
lowerneck -13.8876 -3.13203 -13.4749
upperneck 24.9306 -3.057 7.24411
head 10.6256 -1.87544 4.48811
rclavicle 4.49657e-014 -4.67144e-015
rhumerus -19.1399 43.3509 -82.3187
rradius 121.208
rwrist 33.6334
rhand -5.49236 15.7064
rfingers 7.12502
rthumb 20.3203 -13.2505
lclavicle 4.49657e-014 -4.67144e-015
lhumerus -39.3464 -28.1315 100.104
lradius 92.6268
lwrist 8.89312
lhand -23.9583 29.1333
lfingers 7.12502
lthumb 2.51768 59.0982
rfemur -9.32766 2.31007 11.7972
rtibia 21.984
rfoot -15.9881 -12.1907
rtoes 4.11601
lfemur -3.77005 1.09924 -22.2437
ltibia 16.011
lfoot -10.8901 3.9727
ltoes -11.3865
551
root 0.72211 17.9891 -0.718348 2.82728 -26.7488 0.478602
lowerback -0.150994 0.302838 -3.7323
upperback 0.213398 0.413027 0.698842
thorax 0.272154 0.197831 2.81187
lowerneck -14.1569 -3.16893 -13.0608
upperneck 25.0873 -3.06842 6.82286
head 10.725 -1.88981 4.26362
rclavicle -6.67792e-015 3.37934e-015
rhumerus -19.5197 43.6224 -82.5896
rradius 121.379
rwrist 33.7426
rhand -5.35647 15.3643
rfingers 7.12502
rthumb 20.4509 -13.5787
lclavicle -6.67792e-015 3.37934e-015
lhumerus -39.646 -28.1338 100.144
lradius 92.4262
lwrist 9.35944
lhand -23.9813 27.8236
lfingers 7.12502
lthumb 2.49546 57.7887
rfemur -8.98892 2.18507 11.8781
rtibia 21.8834
rfoot -16.2294 -12.5189
rtoes 4.35001
lfemur -3.72014 0.843541 -22.1607
ltibia 16.0679
lfoot -10.8186 3.66455
ltoes -11.6541
552
root 0.712774 17.9893 -0.715819 2.77422 -26.5389 0.244219
lowerback 0.0235636 0.240305 -3.64293
upperback 0.22809 0.322747 0.779791
thorax 0.196237 0.154044 2.84387
lowerneck -14.4776 -3.20657 -12.7032
upperneck 25.2643 -3.0728 6.44627
head 10.8431 -1.90124 4.06638
rclavicle 3.50218e-014 -5.66536e-015
rhumerus -19.7848 43.8635 -82.7742
rradius 121.5
rwrist 33.8528
rhand -5.21912 15.3435
rfingers 7.12502
rthumb 20.5829 -13.5853
lclavicle 3.50218e-014 -5.66536e-015
lhumerus -39.7332 -27.9897 100.034
lradius 92.4132
lwrist 8.36667
lhand -21.0357 28.704
lfingers 7.12502
lthumb 5.33985 58.6168
rfemur -8.68796 2.25786 12.1609
rtibia 21.768
rfoot -16.3465 -12.7274
rtoes 3.79831
lfemur -3.59791 0.744205 -21.879
ltibia 16.1575
lfoot -10.8562 3.54191
ltoes -11.2753
553
root 0.696512 17.9875 -0.700731 2.7727 -26.5411 -0.240967
lowerback 0.0736287 0.251637 -3.34982
upperback 0.271012 0.336015 0.94282
thorax 0.211808 0.160117 2.84667
lowerneck -14.5963 -3.26186 -12.7225
upperneck 25.2815 -3.14475 6.49988
head 10.8821 -1.92825 4.07986
rclavicle 2.66496e-014 -8.59744e-015
rhumerus -20.1387 44.0797 -82.971
rradius 121.613
rwrist 33.9206
rhand -4.94532 15.5196
rfingers 7.12502
rthumb 20.8459 -13.3805
lclavicle 2.66496e-014 -8.59744e-015
lhumerus -39.9561 -28.0729 100.16
lradius 92.1813
lwrist 8.51317
lhand -20.5281 28.3194
lfingers 7.12502
lthumb 5.83001 58.2192
rfemur -8.33698 2.48801 12.698
rtibia 21.6648
rfoot -16.494 -12.8845
rtoes 3.581
lfemur -3.35884 0.754391 -21.368
ltibia 16.2968
lfoot -10.9874 3.56188
ltoes -11.3343
554
root 0.691729 17.9846 -0.686667 2.6678 -26.5714 -0.364907
lowerback 0.113037 0.257501 -3.22367
upperback 0.289163 0.342581 0.972064
thorax 0.208356 0.163414 2.80562
lowerneck -14.6665 -3.29533 -12.6872
upperneck 25.2648 -3.1959 6.51631
head 10.8948 -1.94471 4.07228
rclavicle 5.58678e-014 -7.95139e-015
rhumerus -20.4843 44.3023 -83.1801
rradius 121.716
rwrist 33.8596
rhand -4.79801 15.838
rfingers 7.12502
rthumb 20.9875 -13.0465
lclavicle 5.58678e-014 -7.95139e-015
lhumerus -40.1999 -28.1333 100.261
lradius 92.0282
lwrist 8.50763
lhand -23.4337 28.1917
lfingers 7.12502
lthumb 3.02423 58.15
rfemur -8.06036 2.54157 12.8305
rtibia 21.5356
rfoot -16.489 -12.9121
rtoes 4.21145
lfemur -3.19552 0.653389 -21.2554
ltibia 16.4447
lfoot -11.1154 3.67343
ltoes -11.1328
555
root 0.697 17.9827 -0.675081 2.64644 -26.5797 -0.18229
lowerback -0.0138172 0.234577 -3.23907
upperback 0.251012 0.315969 0.877928
thorax 0.242724 0.150125 2.7179
lowerneck -14.54 -3.35099 -12.8867
upperneck 24.999 -3.33202 6.88708
head 10.7947 -1.9774 4.21869
rclavicle -9.53701e-015 1.59028e-015
rhumerus -20.7287 44.539 -83.4046
rradius 121.829
rwrist 33.7348
rhand -4.48048 16.2361
rfingers 7.12502
rthumb 21.2925 -12.6142
lclavicle -9.53701e-015 1.59028e-015
lhumerus -40.4487 -28.1517 100.28
lradius 91.9249
lwrist 8.28307
lhand -23.8946 28.0737
lfingers 7.12502
lthumb 2.57917 58.0378
rfemur -8.02565 2.39199 12.6029
rtibia 21.4032
rfoot -16.392 -12.7806
rtoes 4.66131
lfemur -3.2874 0.612468 -21.472
ltibia 16.5967
lfoot -11.1975 3.72383
ltoes -11.0206
556
root 0.689633 17.9821 -0.663994 2.68755 -26.5814 -0.327047
lowerback -0.160042 0.207857 -3.13489
upperback 0.28722 0.285004 0.913076
thorax 0.364357 0.132176 2.69614
lowerneck -14.3685 -3.44469 -13.2418
upperneck 24.5913 -3.5182 7.3972
head 10.6466 -2.02911 4.43239
rclavicle -1.56155e-014 -4.82053e-015
rhumerus -20.8571 44.8488 -83.5614
rradius 121.949
rwrist 33.6881
rhand -4.03175 16.2991
rfingers 7.12502
rthumb 21.7235 -12.5019
lclavicle -1.56155e-014 -4.82053e-015
lhumerus -40.6113 -28.1928 100.266
lradius 91.7902
lwrist 7.99756
lhand -22.5942 27.9919
lfingers 7.12502
lthumb 3.83495 57.9371
rfemur -7.95156 2.40614 12.7544
rtibia 21.4078
rfoot -16.3895 -12.7554
rtoes 4.20468
lfemur -3.20461 0.658058 -21.3232
ltibia 16.5922
lfoot -11.2614 3.68829
ltoes -11.1796
557
root 0.678913 17.979 -0.653287 2.67962 -26.6145 -0.54528
lowerback -0.267654 0.186946 -3.00596
upperback 0.384972 0.260466 0.961393
thorax 0.526977 0.116079 2.67391
lowerneck -14.4969 -3.49422 -13.2468
upperneck 24.4234 -3.60287 7.55399
head 10.622 -2.04342 4.47498
rclavicle -1.01396e-014 3.8763e-015
rhumerus -20.8862 45.1485 -83.6555
rradius 122.077
rwrist 33.6303
rhand -3.66735 16.3953
rfingers 7.12502
rthumb 22.0734 -12.3649
lclavicle -1.01396e-014 3.8763e-015
lhumerus -40.6417 -28.3587 100.134
lradius 91.6718
lwrist 7.92812
lhand -19.4126 27.7544
lfingers 7.12502
lthumb 6.90687 57.6217
rfemur -7.79089 2.5189 13.0039
rtibia 21.4002
rfoot -16.4214 -12.8287
rtoes 3.89282
lfemur -3.01279 0.722017 -21.1029
ltibia 16.5755
lfoot -11.3172 3.73181
ltoes -11.9582
